<?xml version="1.0" encoding="UTF-8" standalone="no"?>
<svg
   viewBox="0 0 36 36"
   version="1.1"
   id="svg3"
   sodipodi:docname="my_bread_no_bg.svg"
   inkscape:version="1.3.2 (091e20e, 2023-11-25)"
   xmlns:inkscape="http://www.inkscape.org/namespaces/inkscape"
   xmlns:sodipodi="http://sodipodi.sourceforge.net/DTD/sodipodi-0.dtd"
   xmlns="http://www.w3.org/2000/svg"
   xmlns:svg="http://www.w3.org/2000/svg">
  <defs
     id="defs3" />
  <sodipodi:namedview
     id="namedview3"
     pagecolor="#ffffff"
     bordercolor="#000000"
     borderopacity="0.25"
     inkscape:showpageshadow="2"
     inkscape:pageopacity="0.0"
     inkscape:pagecheckerboard="0"
     inkscape:deskcolor="#d1d1d1"
     inkscape:zoom="6.5592536"
     inkscape:cx="17.913624"
     inkscape:cy="17.913624"
     inkscape:window-width="1184"
     inkscape:window-height="510"
     inkscape:window-x="150"
     inkscape:window-y="150"
     inkscape:window-maximized="0"
     inkscape:current-layer="svg3" />
  <path
     fill="#d99e82"
     d="M 36,13.5 C 36,8.942 31.565,5.233 26,5.021 V 5 H 10 V 5.021 C 4.435,5.233 0,8.942 0,13.5 c 0,1.861 0.747,3.576 2,4.976 V 31 c 0,2.209 1.791,4 4,4 h 24 c 2.209,0 4,-1.791 4,-4 V 18.476 c 1.253,-1.4 2,-3.115 2,-4.976 z"
     id="path1"
     inkscape:label="path1"
     style="display:inline" />
  <path
     fill="#CC927A"
     d="M19 18.476h15v1.5H19z"
     id="path2" />
  <path
     fill="#FFE8B6"
     d="M21 13.5c0-3.461-3.538-6.291-8-6.489C12.835 7.004 10.668 7 10.5 7 5.806 7 2 9.91 2 13.5c0 1.595.754 3.053 2 4.184V30c0 1.657 1.343 3 3 3h9c1.657 0 3-1.343 3-3V17.679c1.244-1.131 2-2.586 2-4.179z"
     id="path3" />
  <path
     fill-rule="evenodd"
     clip-rule="evenodd"
     fill="#292f33"
     d="m 4.22633,16.916117 c 0.1022497,0.101824 0.6126459,0.407721 0.7144695,0.713618 0.1022497,0.305471 0.306749,2.038176 0.9193948,2.548146 0.6318177,0.524882 3.0150867,0.329756 3.4713758,0.10225 1.0212189,-0.509118 1.1464739,-1.930388 1.3271149,-2.650396 0.101824,-0.407721 0.71447,-0.407721 0.71447,-0.407721 0,0 0.612646,0 0.714896,0.407295 0.180641,0.720434 0.306749,2.141704 1.327115,2.650396 0.456714,0.227932 2.839984,0.423484 3.472653,-0.101398 0.611794,-0.509969 0.815868,-2.242676 0.918117,-2.548572 0.101398,-0.305471 0.612646,-0.611368 0.71447,-0.713191 0.102676,-0.101824 0.102676,-0.509545 0,-0.611794 -0.204074,-0.203648 -2.613331,-0.385141 -5.20749,-0.101824 -0.517639,0.05666 -0.714469,0.203647 -1.940187,0.203647 -1.224866,0 -1.4225485,-0.14741 -1.9397614,-0.203647 -2.5924547,-0.283742 -5.0021382,-0.10225 -5.2066376,0.101398 -0.1018236,0.101823 -0.1018236,0.509969 0,0.611793 z"
     id="path2-7"
     style="stroke-width:0.42604" />
  <path
     fill="#664500"
     d="m 15.561822,23.536613 c -0.08301,-0.07509 -0.207066,-0.07975 -0.296142,-0.01353 -0.01819,0.01353 -1.829091,1.352464 -4.057391,1.352464 -2.2227041,0 -4.0396689,-1.338939 -4.0573909,-1.352464 -0.089076,-0.06622 -0.2131296,-0.06063 -0.2961429,0.01353 -0.082547,0.07462 -0.1012016,0.19774 -0.043838,0.292878 0.060161,0.100269 1.5003018,2.445161 4.3973718,2.445161 2.89707,0 4.337677,-2.344892 4.397372,-2.445161 0.05736,-0.09561 0.03918,-0.21826 -0.04384,-0.292878 z"
     id="path3-9"
     style="opacity:1;fill:#d99e82;fill-opacity:1;stroke-width:0.466367" />
</svg>
